# xmcd
#
# Track frame offsets: 
#        150
#        24864
#        38226
#        55936
#        73415
#        90428
#        99292
#        112845
#        131392
#        141367
#        152230
#        164527
#        176675
#
# Disc length: 2594 seconds
#
# Revision: 0
# Processed by: cddbd v1.5.2PL0 Copyright (c) Steve Scherf et al.
# Submitted via: ExactAudioCopyFreeDBPlugin 1.0
#
DISCID=a80a200d
DTITLE=Nalle, Omar and Magic Slim - Chapel Hill
DYEAR=2008
DGENRE=Blues
TTITLE0=Meet Me in My Own Hometown
TTITLE1=Built for Comfort
TTITLE2=Little Red Rooster
TTITLE3=It’s All Right
TTITLE4=Chapel Hill Boggie
TTITLE5=Scufflin’
TTITLE6=Come on Pretty Baby
TTITLE7=Country Girl
TTITLE8=Can’t Get No Grindin’
TTITLE9=Come on in This House
TTITLE10=Mary Lee
TTITLE11=I’m a Stranger
TTITLE12=Love My Baby
EXTD=
EXTT0=
EXTT1=
EXTT2=
EXTT3=
EXTT4=
EXTT5=
EXTT6=
EXTT7=
EXTT8=
EXTT9=
EXTT10=
EXTT11=
EXTT12=
PLAYORDER=
